<svg width="24" xmlns="http://www.w3.org/2000/svg" height="24">
 <g>
  <title>background</title>
  <rect width="582" y="-1" x="-1" height="402" fill="none" id="canvas_background"/>
 </g>
 <g>
  <title>Layer 1</title>
  <path d="m0,0l24,0l0,24l-24,0l0,-24z" fill="none" id="svg_1"/>
  <path stroke="null" fill-opacity="1" d="m12.064101,2.280911c-3.763681,0 -6.807693,3.044011 -6.807693,6.807693c0,5.105769 6.807693,12.642858 6.807693,12.642858s6.807693,-7.537088 6.807693,-12.642858c0,-3.763681 -3.044011,-6.807693 -6.807693,-6.807693z" fill="#ff0000" id="svg_2"/>
  <circle cy="9" cx="12" r="2.5" id="svg_3"/>
  <path d="m12,2c-3.87,0 -7,3.13 -7,7c0,5.25 7,13 7,13s7,-7.75 7,-13c0,-3.87 -3.13,-7 -7,-7zm-5,7c0,-2.76 2.24,-5 5,-5s5,2.24 5,5c0,2.88 -2.88,7.19 -5,9.88c-2.08,-2.67 -5,-7.03 -5,-9.88z" fill="#000000" id="svg_10"/>
 </g>
</svg>
